<svg xmlns="http://www.w3.org/2000/svg" viewBox="0 0 512 512"><path fill="#e11d48" d="M256 448c-24-19-45-40-61-66C166 344 144 296 144 240c0-70 58-128 128-128s128 58 128 128c0 56-22 104-51 142-16 26-37 47-61 66z"/><ellipse cx="180" cy="278" rx="50" ry="68" fill="#1e293b"/><circle cx="168" cy="218" r="36" fill="#1e293b"/><path fill="#fbbf24" d="M136 216l32 10v10l-32-8z"/><circle cx="158" cy="206" r="5" fill="#fff"/><ellipse cx="332" cy="278" rx="50" ry="68" fill="#1e293b"/><circle cx="344" cy="218" r="36" fill="#1e293b"/><path fill="#fbbf24" d="M376 216l-32 10v10l32-8z"/><circle cx="354" cy="206" r="5" fill="#fff"/><circle cx="256" cy="226" r="6" fill="#fbbf24"/></svg>
